<?xml version="1.0" encoding="utf-8"?>
<svg viewBox="-30.527 80.277 798.85 136.221" xmlns="http://www.w3.org/2000/svg">
  <path d="m 3752.52,3424.08 h -26.94 v 15.46 h 32.6 c 4.26,0 7.2,-0.87 8.86,-2.53 1.66,-1.57 2.5,-4.5 2.5,-8.61 v -40.77 c -5.18,-3.91 -11.36,-6.86 -18.53,-8.9 -7.14,-1.96 -14.97,-2.94 -23.43,-2.94 -12.8,0 -23.9,2.55 -33.44,7.82 -9.48,5.29 -16.77,12.51 -21.76,21.81 -5.03,9.28 -7.52,19.94 -7.52,31.97 0,12.71 2.59,23.68 7.77,33.06 5.23,9.38 12.37,16.51 21.51,21.51 9.2,4.9 19.61,7.42 31.25,7.42 8.4,0 16.28,-1.35 23.57,-4.09 7.37,-2.75 13.29,-6.46 17.89,-11.34 l -9.54,-12.05 c -3.92,3.64 -8.7,6.37 -14.37,8.32 -5.63,2.06 -11.34,3.03 -17.16,3.03 -8.75,0 -16.33,-1.84 -22.84,-5.75 -6.5,-3.83 -11.48,-9.2 -14.91,-16.05 -3.43,-6.85 -5.09,-14.78 -5.09,-23.67 0,-14.19 4.01,-25.41 12.08,-33.62 8.11,-8.32 19.12,-12.44 33.05,-12.44 9.93,0 18.05,1.47 24.45,4.8 v 27.56" style="fill:#26326b;fill-opacity:1;fill-rule:nonzero;stroke:none" id="path16" transform="matrix(0.133333, 0, 0, -0.133333, -315.101959, 661.831543)"/>
  <path d="m 3831.83,3455.98 c -6.95,0 -12.71,-2.15 -17.32,-6.44 -4.64,-4.52 -7.53,-10.58 -8.7,-18.39 h 49.04 c -0.44,8.01 -2.69,14.06 -6.7,18.39 -4,4.29 -9.43,6.44 -16.32,6.44 z m 38.13,-70.33 c -3.68,-3.21 -8.51,-5.55 -14.38,-7.31 -5.91,-1.76 -12.36,-2.55 -19.51,-2.55 -14.47,0 -25.9,4.19 -34.31,12.63 -8.42,8.48 -12.57,19.94 -12.57,34.51 0,9.19 1.9,17.3 5.72,24.43 3.86,7.24 9.05,12.74 15.64,16.44 6.51,3.91 13.89,5.86 22.01,5.86 11.83,0 21.17,-3.92 28.06,-11.74 6.95,-7.82 10.37,-18.38 10.37,-31.46 v -8.62 h -65.37 c 0.83,-8.89 3.96,-15.85 9.34,-20.73 5.37,-4.89 12.51,-7.41 21.51,-7.41 5.33,0 10.5,0.76 15.6,2.14 5.03,1.35 9.23,3.41 12.51,5.86 l 5.38,-12.05" style="fill:#26326b;fill-opacity:1;fill-rule:nonzero;stroke:none" id="path18" transform="matrix(0.133333, 0, 0, -0.133333, -315.101959, 661.831543)"/>
  <path d="m 3937.08,3390.46 c 5.38,0 10.28,1.38 14.62,4.3 4.31,2.94 7.58,6.84 9.88,11.64 2.3,4.8 3.47,10.27 3.47,16.33 0,6.35 -1.27,11.93 -3.81,16.81 -2.54,4.9 -5.86,8.81 -10.08,11.35 -4.2,2.73 -8.89,4.12 -14.08,4.12 -5.66,0 -10.7,-1.56 -15.16,-4.41 -4.43,-2.84 -7.86,-6.74 -10.26,-11.64 -2.44,-4.89 -3.62,-10.17 -3.62,-16.23 0,-6.45 1.28,-12.11 3.87,-17.03 2.59,-4.88 6.12,-8.59 10.56,-11.23 4.45,-2.63 9.28,-4.01 14.61,-4.01 z m -44.79,-12.24 v 127.42 h 16.44 v -53.77 c 3.18,5.57 7.53,9.97 13.15,13.11 5.53,3.12 11.69,4.68 18.54,4.68 8.2,0 15.4,-2.15 21.7,-6.35 6.31,-4.19 11.25,-9.77 14.67,-16.92 3.38,-7.04 5.08,-14.94 5.08,-23.66 0,-9.19 -1.86,-17.42 -5.52,-24.64 -3.77,-7.24 -8.76,-12.72 -15.01,-16.63 -6.26,-3.72 -13.21,-5.67 -20.92,-5.67 -6.85,0 -13.07,1.56 -18.64,4.5 -5.67,3.13 -10.12,7.43 -13.39,12.9 v -14.97 h -16.1" style="fill:#26326b;fill-opacity:1;fill-rule:nonzero;stroke:none" id="path20" transform="matrix(0.133333, 0, 0, -0.133333, -315.101959, 661.831543)"/>
  <path d="m 4063.28,3487.27 c -2.11,-1.95 -4.7,-2.93 -7.87,-2.93 -3.23,0 -5.92,0.98 -8.02,2.93 -2.11,1.96 -3.19,4.5 -3.19,7.43 0,3.12 1.04,5.67 3.09,7.82 2.05,2.06 4.79,3.12 8.12,3.12 3.17,0 5.76,-1.06 7.87,-3.12 2.05,-1.95 3.08,-4.59 3.08,-7.82 0,-2.93 -1.03,-5.47 -3.08,-7.43 z m -49.33,-82.62 c 0,-4.81 1.61,-8.61 4.93,-11.46 3.28,-2.62 7.93,-4 13.84,-4 6.85,0 12.47,2.04 16.86,6.06 4.46,4.01 6.7,9.09 6.7,15.37 v 9.37 h -17.55 c -8.51,0 -14.81,-1.28 -18.82,-3.71 -4.01,-2.56 -5.96,-6.47 -5.96,-11.63 z m 13.34,82.62 c -2.1,-1.95 -4.69,-2.93 -7.87,-2.93 -3.18,0 -5.82,0.98 -7.87,2.93 -2.06,1.96 -3.13,4.5 -3.13,7.43 0,3.23 1.07,5.87 3.13,7.82 2.05,2.06 4.69,3.12 7.87,3.12 3.18,0 5.77,-1.06 7.87,-3.12 2.1,-1.95 3.13,-4.59 3.13,-7.82 0,-2.93 -1.03,-5.47 -3.13,-7.43 z m 43.13,-109.05 c -4.02,0 -6.99,0.89 -8.96,2.55 -1.89,1.67 -3.02,4.41 -3.27,8.31 -2.69,-4.29 -6.6,-7.62 -11.69,-9.86 -5.07,-2.26 -10.89,-3.43 -17.5,-3.43 -9.48,0 -17.01,2.35 -22.59,7.24 -5.67,4.89 -8.45,11.64 -8.45,19.96 0,9.48 3.51,16.89 10.46,22.19 7,5.37 16.62,7.92 29.05,7.92 h 18.81 c -0.39,15.25 -8.26,22.88 -23.56,22.88 -9.24,0 -17.51,-2.36 -24.79,-7.24 l -5.33,11.36 c 3.67,2.93 8.36,5.27 14.08,6.92 5.67,1.66 11.54,2.64 17.6,2.64 12.03,0 21.47,-3.33 28.17,-9.87 6.74,-6.55 10.07,-15.75 10.07,-27.39 v -40.18 h 11.93 v -14 h -14.03" style="fill:#26326b;fill-opacity:1;fill-rule:nonzero;stroke:none" id="path22" transform="matrix(0.133333, 0, 0, -0.133333, -315.101959, 661.831543)"/>
  <path d="m 4135.79,3375.79 c -10.66,0 -18.88,3.32 -24.79,9.97 -5.92,6.65 -8.91,16.03 -8.91,28.18 v 53.36 h 16.53 v -52.39 c 0,-7.93 1.76,-13.99 5.38,-18.19 3.57,-4.11 8.75,-6.26 15.5,-6.26 7.58,0 13.5,2.35 17.79,7.24 4.31,4.88 6.5,11.63 6.5,20.35 v 49.25 h 16.44 v -89.08 h -15.4 v 13.5 c -2.94,-5.17 -6.94,-9.17 -11.98,-11.82 -4.99,-2.73 -10.66,-4.11 -17.06,-4.11" style="fill:#26326b;fill-opacity:1;fill-rule:nonzero;stroke:none" id="path24" transform="matrix(0.133333, 0, 0, -0.133333, -315.101959, 661.831543)"/>
  <path d="m 4247.01,3390.46 c 5.68,0 10.71,1.38 15.16,4.3 4.4,2.94 7.87,6.84 10.27,11.64 2.44,4.8 3.61,10.27 3.61,16.33 0,6.35 -1.26,11.93 -3.86,16.81 -2.59,4.9 -6.16,8.81 -10.56,11.35 -4.44,2.73 -9.29,4.12 -14.62,4.12 -5.42,0 -10.32,-1.56 -14.62,-4.41 -4.3,-2.84 -7.58,-6.74 -9.87,-11.64 -2.3,-4.89 -3.47,-10.17 -3.47,-16.23 0,-6.45 1.26,-12.11 3.81,-17.03 2.54,-4.88 5.86,-8.59 10.07,-11.23 4.16,-2.63 8.86,-4.01 14.08,-4.01 z m 28.9,-12.24 v 15.47 c -3.42,-5.77 -8.07,-10.08 -13.74,-13.2 -5.72,-3.14 -11.88,-4.7 -18.48,-4.7 -6.31,0 -12.02,1.17 -17.22,3.71 -5.17,2.44 -9.62,5.87 -13.29,10.2 -3.67,4.27 -6.45,9.27 -8.31,14.95 -1.91,5.57 -2.83,11.63 -2.83,18.08 0,9.19 1.85,17.41 5.57,24.44 3.71,7.24 8.7,12.71 14.96,16.63 6.26,3.91 13.3,5.86 21.12,5.86 6.79,0 12.96,-1.56 18.48,-4.68 5.48,-3.04 9.88,-7.44 13.2,-13.11 v 53.77 h 16.43 v -127.42 h -15.89" style="fill:#26326b;fill-opacity:1;fill-rule:nonzero;stroke:none" id="path26" transform="matrix(0.133333, 0, 0, -0.133333, -315.101959, 661.831543)"/>
  <path d="m 4356.09,3455.98 c -6.94,0 -12.76,-2.15 -17.36,-6.44 -4.59,-4.52 -7.48,-10.58 -8.65,-18.39 h 48.99 c -0.39,8.01 -2.69,14.06 -6.7,18.39 -4.01,4.29 -9.43,6.44 -16.28,6.44 z m 38.08,-70.33 c -3.66,-3.21 -8.46,-5.55 -14.31,-7.31 -5.97,-1.76 -12.42,-2.55 -19.52,-2.55 -14.52,0 -25.96,4.19 -34.31,12.63 -8.47,8.48 -12.62,19.94 -12.62,34.51 0,9.19 1.9,17.3 5.72,24.43 3.86,7.24 9.1,12.74 15.64,16.44 6.51,3.91 13.89,5.86 22.06,5.86 11.78,0 21.16,-3.92 28.06,-11.74 6.9,-7.82 10.32,-18.38 10.32,-31.46 v -8.62 h -65.32 c 0.83,-8.89 3.91,-15.85 9.28,-20.73 5.38,-4.89 12.57,-7.41 21.52,-7.41 5.33,0 10.51,0.76 15.59,2.14 5.09,1.35 9.29,3.41 12.57,5.86 l 5.32,-12.05" style="fill:#26326b;fill-opacity:1;fill-rule:nonzero;stroke:none" id="path28" transform="matrix(0.133333, 0, 0, -0.133333, -315.101959, 661.831543)"/>
  <path d="m 4460.43,3468.3 c 2.2,0 4.74,-0.3 7.57,-1 v -15.05 c -1.91,0.5 -4.69,0.79 -8.5,0.79 -8.26,0 -14.77,-2.54 -19.46,-7.72 -4.74,-4.99 -7.09,-12.03 -7.09,-20.83 v -46.27 h -16.48 v 89.08 h 15.41 v -16.61 c 2.73,5.67 6.54,9.97 11.48,13.11 4.99,3.03 10.61,4.5 17.07,4.5" style="fill:#26326b;fill-opacity:1;fill-rule:nonzero;stroke:none" id="path30" transform="matrix(0.133333, 0, 0, -0.133333, -315.101959, 661.831543)"/>
  <path d="m 4520.07,3455.98 c -6.94,0 -12.76,-2.15 -17.36,-6.44 -4.58,-4.52 -7.48,-10.58 -8.65,-18.39 h 49.05 c -0.44,8.01 -2.69,14.06 -6.76,18.39 -4,4.29 -9.43,6.44 -16.28,6.44 z m 38.09,-70.33 c -3.66,-3.21 -8.46,-5.55 -14.32,-7.31 -5.97,-1.76 -12.42,-2.55 -19.51,-2.55 -14.52,0 -25.97,4.19 -34.32,12.63 -8.46,8.48 -12.62,19.94 -12.62,34.51 0,9.19 1.91,17.3 5.72,24.43 3.91,7.24 9.1,12.74 15.65,16.44 6.51,3.91 13.94,5.86 22.05,5.86 11.79,0 21.17,-3.92 28.07,-11.74 6.89,-7.82 10.3,-18.38 10.3,-31.46 v -8.62 h -65.31 c 0.83,-8.89 3.91,-15.85 9.29,-20.73 5.38,-4.89 12.57,-7.41 21.51,-7.41 5.33,0 10.51,0.76 15.65,2.14 5.03,1.35 9.24,3.41 12.51,5.86 l 5.33,-12.05" style="fill:#26326b;fill-opacity:1;fill-rule:nonzero;stroke:none" id="path32" transform="matrix(0.133333, 0, 0, -0.133333, -315.101959, 661.831543)"/>
  <path d="m 4600.6,3486.3 c -2.06,-1.96 -4.76,-3.05 -8.06,-3.05 -3.33,0 -6.02,1.09 -8.08,3.05 -2.04,2.15 -3.08,4.69 -3.08,7.92 0,3.2 1.04,5.75 3.08,7.9 2.06,2.07 4.75,3.13 8.08,3.13 3.3,0 6,-1.06 8.06,-3.13 2.05,-2.15 3.09,-4.7 3.09,-7.9 0,-3.23 -1.04,-5.77 -3.09,-7.92 z m -13.94,-108.08 v 75.11 h -14.32 v 13.97 h 19.11 c 4.05,0 7,-0.97 8.92,-2.73 1.85,-1.85 2.82,-4.69 2.82,-8.8 v -77.55 h -16.53" style="fill:#26326b;fill-opacity:1;fill-rule:nonzero;stroke:none" id="path34" transform="matrix(0.133333, 0, 0, -0.133333, -315.101959, 661.831543)"/>
  <path d="m 4674.29,3469.66 c 10.75,0 19.15,-3.33 25.02,-10.06 5.89,-6.64 8.9,-16.04 8.9,-28.07 v -53.31 h -16.52 v 52.33 c 0,7.82 -1.76,13.89 -5.37,18.09 -3.64,4.2 -8.82,6.37 -15.74,6.37 -7.48,0 -13.46,-2.56 -17.82,-7.36 -4.34,-4.78 -6.54,-11.61 -6.54,-20.23 v -49.2 h -16.46 v 89.08 h 15.33 v -13.68 c 2.89,5.3 6.8,9.21 11.84,11.93 4.98,2.75 10.79,4.11 17.36,4.11" style="fill:#26326b;fill-opacity:1;fill-rule:nonzero;stroke:none" id="path36" transform="matrix(0.133333, 0, 0, -0.133333, -315.101959, 661.831543)"/>
  <path d="m 4754.47,3486.3 c -2.06,-1.96 -4.7,-3.05 -8.02,-3.05 -3.32,0 -6.07,1.09 -8.02,3.05 -2.15,2.15 -3.13,4.69 -3.13,7.92 0,3.2 0.98,5.75 3.13,7.9 1.95,2.07 4.7,3.13 8.02,3.13 3.32,0 5.96,-1.06 8.02,-3.13 2.05,-2.15 3.12,-4.7 3.12,-7.9 0,-3.23 -1.07,-5.77 -3.12,-7.92 z m -13.89,-108.08 v 75.11 h -14.38 v 13.97 h 19.18 c 4,0 6.93,-0.97 8.89,-2.73 1.76,-1.85 2.84,-4.69 2.84,-8.8 v -77.55 h -16.53" style="fill:#26326b;fill-opacity:1;fill-rule:nonzero;stroke:none" id="path38" transform="matrix(0.133333, 0, 0, -0.133333, -315.101959, 661.831543)"/>
  <path d="m 4823.69,3392.61 c 8.22,0 15.07,2.94 20.54,8.82 5.47,5.75 8.21,13.09 8.21,21.98 0,6.17 -1.18,11.65 -3.82,16.53 -2.63,4.89 -6.06,8.7 -10.45,11.34 -4.4,2.73 -9.21,4.01 -14.48,4.01 -5.47,0 -10.36,-1.46 -14.76,-4.4 -4.4,-2.83 -7.72,-6.74 -9.97,-11.54 -2.26,-4.89 -3.43,-10.16 -3.43,-15.94 0,-9 2.55,-16.33 7.93,-22.18 5.29,-5.68 12.01,-8.62 20.23,-8.62 z m 28.67,3.32 c -3.35,-5.86 -7.74,-10.28 -13.21,-13.29 -5.47,-3.14 -11.75,-4.7 -18.88,-4.7 -8.12,0 -15.35,1.96 -21.8,6.07 -6.37,4.11 -11.25,9.59 -14.77,16.42 -3.51,6.86 -5.17,14.48 -5.17,22.98 0,8.9 1.74,16.92 5.57,24.06 3.71,7.13 8.7,12.63 14.96,16.33 6.34,3.91 13.4,5.86 21.11,5.86 6.75,0 13.01,-1.56 18.59,-4.68 5.67,-3.14 10.17,-7.62 13.6,-13.21 v 15.53 h 15.92 v -81.54 c 0,-14.46 -4.19,-25.8 -12.7,-33.82 -8.41,-8.03 -20.36,-11.94 -35.8,-11.94 -6.45,0 -12.71,0.8 -18.57,2.56 -5.88,1.77 -10.56,3.99 -14.08,6.82 l 4.97,12.92 c 3.43,-2.53 7.54,-4.4 12.43,-5.77 4.89,-1.37 9.87,-2.07 15.05,-2.07 10.46,0 18.59,2.76 24.26,8.04 5.68,5.47 8.52,13.1 8.52,23.15 v 10.28" style="fill:#26326b;fill-opacity:1;fill-rule:nonzero;stroke:none" id="path40" transform="matrix(0.133333, 0, 0, -0.133333, -315.101959, 661.831543)"/>
  <path d="m 4927.93,3375.79 c -10.64,0 -18.88,3.32 -24.83,9.97 -5.86,6.65 -8.8,16.03 -8.8,28.18 v 53.36 h 16.43 v -52.39 c 0,-7.93 1.75,-13.99 5.47,-18.19 3.52,-4.11 8.8,-6.26 15.45,-6.26 7.62,0 13.5,2.35 17.79,7.24 4.3,4.88 6.47,11.63 6.47,20.35 v 49.25 h 16.51 v -89.08 h -15.44 v 13.5 c -2.94,-5.17 -6.95,-9.17 -12.04,-11.82 -4.89,-2.73 -10.56,-4.11 -17.01,-4.11" style="fill:#26326b;fill-opacity:1;fill-rule:nonzero;stroke:none" id="path42" transform="matrix(0.133333, 0, 0, -0.133333, -315.101959, 661.831543)"/>
  <path d="m 5043.91,3469.66 c 10.74,0 19.15,-3.33 25.04,-10.06 5.85,-6.64 8.79,-16.04 8.79,-28.07 v -53.31 h -16.42 v 52.33 c 0,7.82 -1.78,13.89 -5.39,18.09 -3.63,4.2 -8.9,6.37 -15.74,6.37 -7.44,0 -13.5,-2.56 -17.79,-7.36 -4.41,-4.78 -6.65,-11.61 -6.65,-20.23 v -49.2 h -16.44 v 89.08 h 15.44 v -13.68 c 2.76,5.3 6.67,9.21 11.75,11.93 5.08,2.75 10.85,4.11 17.41,4.11" style="fill:#26326b;fill-opacity:1;fill-rule:nonzero;stroke:none" id="path44" transform="matrix(0.133333, 0, 0, -0.133333, -315.101959, 661.831543)"/>
  <path d="m 5144.04,3392.61 c 8.21,0 15.04,2.94 20.64,8.82 5.47,5.75 8.2,13.09 8.2,21.98 0,6.17 -1.28,11.65 -3.82,16.53 -2.63,4.89 -6.15,8.7 -10.55,11.34 -4.31,2.73 -9.19,4.01 -14.47,4.01 -5.47,0 -10.37,-1.46 -14.66,-4.4 -4.42,-2.83 -7.73,-6.74 -9.98,-11.54 -2.34,-4.89 -3.52,-10.16 -3.52,-15.94 0,-9 2.65,-16.33 8.02,-22.18 5.27,-5.68 12.01,-8.62 20.14,-8.62 z m 28.73,3.32 c -3.32,-5.86 -7.81,-10.28 -13.29,-13.29 -5.47,-3.14 -11.73,-4.7 -18.78,-4.7 -8.2,0 -15.44,1.96 -21.8,6.07 -6.35,4.11 -11.36,9.59 -14.76,16.42 -3.52,6.86 -5.29,14.48 -5.29,22.98 0,8.9 1.87,16.92 5.58,24.06 3.83,7.13 8.7,12.63 15.07,16.33 6.35,3.91 13.29,5.86 21.02,5.86 6.84,0 13.09,-1.56 18.56,-4.68 5.68,-3.14 10.2,-7.62 13.69,-13.21 v 15.53 h 15.86 v -81.54 c 0,-14.46 -4.21,-25.8 -12.62,-33.82 -8.51,-8.03 -20.43,-11.94 -35.88,-11.94 -6.46,0 -12.72,0.8 -18.48,2.56 -5.87,1.77 -10.57,3.99 -14.11,6.82 l 5.01,12.92 c 3.33,-2.53 7.52,-4.4 12.33,-5.77 4.88,-1.37 9.97,-2.07 15.05,-2.07 10.56,0 18.58,2.76 24.26,8.04 5.65,5.47 8.58,13.1 8.58,23.15 v 10.28" style="fill:#26326b;fill-opacity:1;fill-rule:nonzero;stroke:none" id="path46" transform="matrix(0.133333, 0, 0, -0.133333, -315.101959, 661.831543)"/>
  <path d="m 5303.43,3351.84 v 153.8 h 16.03 v -153.8 h -16.03" style="fill:#26326b;fill-opacity:1;fill-rule:nonzero;stroke:none" id="path48" transform="matrix(0.133333, 0, 0, -0.133333, -315.101959, 661.831543)"/>
  <path d="m 5480.03,3393.19 c 10.25,0 17.78,1.57 22.48,4.69 4.88,3.04 7.26,8.02 7.26,14.69 0,13.89 -9.99,20.72 -29.74,20.72 h -25.23 v -40.1 z m -1.77,54.67 c 14.76,0 22.1,5.76 22.1,17.32 0,5.55 -1.95,9.77 -5.86,12.71 -3.91,2.92 -9.69,4.3 -17.32,4.3 h -22.38 v -34.33 z m -40.68,49 h 40.3 c 12.11,0 21.69,-2.64 28.74,-7.93 7.05,-5.38 10.56,-12.6 10.56,-22.02 0,-5.46 -1.18,-10.35 -3.7,-14.66 -2.45,-4.19 -6.09,-7.51 -10.77,-9.96 7.82,-2.06 13.88,-5.68 18.18,-10.76 4.12,-5.07 6.28,-11.44 6.28,-19.16 0,-22.67 -15.67,-34.15 -46.96,-34.15 h -42.63 v 118.64" style="fill:#26326b;fill-opacity:1;fill-rule:nonzero;stroke:none" id="path50" transform="matrix(0.133333, 0, 0, -0.133333, -315.101959, 661.831543)"/>
  <path d="m 5589.15,3390.46 c 5.57,0 10.75,1.38 15.25,4.3 4.42,2.94 7.83,6.84 10.28,11.64 2.43,4.8 3.6,10.27 3.6,16.33 0,6.35 -1.28,11.93 -3.9,16.81 -2.54,4.9 -6.07,8.81 -10.47,11.35 -4.4,2.73 -9.28,4.12 -14.76,4.12 -5.68,0 -10.74,-1.56 -15.24,-4.41 -4.52,-2.84 -8.04,-6.74 -10.38,-11.64 -2.44,-4.89 -3.72,-10.17 -3.72,-16.23 0,-6.45 1.36,-12.11 3.91,-17.03 2.65,-4.88 6.17,-8.59 10.56,-11.23 4.51,-2.63 9.39,-4.01 14.87,-4.01 z m 0,-14.67 c -9.19,0 -17.22,2.07 -24.25,6.26 -7.05,4.11 -12.41,9.79 -16.23,16.92 -3.91,7.14 -5.78,14.97 -5.78,23.76 0,9.19 2.06,17.41 6.16,24.44 4.11,7.24 9.7,12.71 16.64,16.63 7.04,3.91 14.87,5.86 23.46,5.86 8.99,0 16.9,-2.15 23.95,-6.35 6.95,-4.19 12.44,-9.77 16.35,-16.92 3.8,-7.04 5.65,-14.94 5.65,-23.66 0,-9.19 -1.94,-17.42 -6.14,-24.55 -4.12,-7.14 -9.7,-12.7 -16.73,-16.53 -6.84,-3.91 -14.66,-5.86 -23.08,-5.86" style="fill:#26326b;fill-opacity:1;fill-rule:nonzero;stroke:none" id="path52" transform="matrix(0.133333, 0, 0, -0.133333, -315.101959, 661.831543)"/>
  <path d="m 5696.7,3390.46 c 5.68,0 10.77,1.38 15.27,4.3 4.31,2.94 7.82,6.84 10.17,11.64 2.45,4.8 3.6,10.27 3.6,16.33 0,6.35 -1.27,11.93 -3.79,16.81 -2.64,4.9 -6.18,8.81 -10.57,11.35 -4.5,2.73 -9.29,4.12 -14.68,4.12 -5.47,0 -10.26,-1.56 -14.56,-4.41 -4.3,-2.84 -7.62,-6.74 -9.87,-11.64 -2.36,-4.89 -3.53,-10.17 -3.53,-16.23 0,-6.45 1.28,-12.11 3.83,-17.03 2.54,-4.88 5.96,-8.59 10.08,-11.23 4.19,-2.63 8.88,-4.01 14.05,-4.01 z m 28.96,-12.24 v 15.47 c -3.52,-5.77 -8.02,-10.08 -13.69,-13.2 -5.77,-3.14 -11.94,-4.7 -18.59,-4.7 -6.26,0 -11.91,1.17 -17.21,3.71 -5.17,2.44 -9.58,5.87 -13.29,10.2 -3.62,4.27 -6.45,9.27 -8.2,14.95 -1.97,5.57 -2.94,11.63 -2.94,18.08 0,9.19 1.95,17.41 5.67,24.44 3.71,7.24 8.61,12.71 14.86,16.63 6.26,3.91 13.29,5.86 21.11,5.86 6.85,0 13.01,-1.56 18.59,-4.68 5.47,-3.04 9.78,-7.44 13.1,-13.11 v 53.77 h 16.42 v -127.42 h -15.83" style="fill:#26326b;fill-opacity:1;fill-rule:nonzero;stroke:none" id="path54" transform="matrix(0.133333, 0, 0, -0.133333, -315.101959, 661.831543)"/>
  <path d="m 5805.83,3455.98 c -6.92,0 -12.7,-2.15 -17.29,-6.44 -4.6,-4.52 -7.53,-10.58 -8.71,-18.39 h 49.09 c -0.49,8.01 -2.74,14.06 -6.75,18.39 -4.01,4.29 -9.48,6.44 -16.34,6.44 z m 38.14,-70.33 c -3.71,-3.21 -8.49,-5.55 -14.37,-7.31 -5.96,-1.76 -12.41,-2.55 -19.45,-2.55 -14.47,0 -26.02,4.19 -34.43,12.63 -8.41,8.48 -12.51,19.94 -12.51,34.51 0,9.19 1.96,17.3 5.67,24.43 3.9,7.24 9.09,12.74 15.63,16.44 6.57,3.91 13.9,5.86 22.12,5.86 11.73,0 21.11,-3.92 27.96,-11.74 7.04,-7.82 10.35,-18.38 10.35,-31.46 v -8.62 h -65.31 c 0.79,-8.89 3.91,-15.85 9.38,-20.73 5.29,-4.89 12.52,-7.41 21.42,-7.41 5.39,0 10.56,0.76 15.64,2.14 4.99,1.35 9.29,3.41 12.63,5.86 l 5.27,-12.05" style="fill:#26326b;fill-opacity:1;fill-rule:nonzero;stroke:none" id="path56" transform="matrix(0.133333, 0, 0, -0.133333, -315.101959, 661.831543)"/>
  <path d="m 5910.86,3469.66 c 10.74,0 19.07,-3.33 25.04,-10.06 5.87,-6.64 8.79,-16.04 8.79,-28.07 v -53.31 h -16.42 v 52.33 c 0,7.82 -1.76,13.89 -5.47,18.09 -3.52,4.2 -8.82,6.37 -15.66,6.37 -7.52,0 -13.5,-2.56 -17.9,-7.36 -4.4,-4.78 -6.54,-11.61 -6.54,-20.23 v -49.2 h -16.44 v 89.08 h 15.36 v -13.68 c 2.84,5.3 6.75,9.21 11.84,11.93 4.99,2.75 10.75,4.11 17.4,4.11" style="fill:#26326b;fill-opacity:1;fill-rule:nonzero;stroke:none" id="path58" transform="matrix(0.133333, 0, 0, -0.133333, -315.101959, 661.831543)"/>
  <path d="m 6015.67,3390.46 c 5.49,0 10.37,1.38 14.67,4.3 4.33,2.94 7.63,6.84 9.89,11.64 2.26,4.8 3.4,10.27 3.4,16.33 0,6.35 -1.14,11.93 -3.71,16.81 -2.52,4.9 -5.84,8.81 -10.13,11.35 -4.22,2.73 -8.83,4.12 -14.12,4.12 -5.66,0 -10.63,-1.56 -15.04,-4.41 -4.5,-2.84 -7.92,-6.74 -10.37,-11.64 -2.34,-4.89 -3.52,-10.17 -3.52,-16.23 0,-6.45 1.18,-12.11 3.81,-17.03 2.65,-4.88 6.16,-8.59 10.48,-11.23 4.49,-2.63 9.37,-4.01 14.64,-4.01 z m -44.76,-12.24 v 127.42 h 16.42 v -53.77 c 3.22,5.57 7.61,9.97 13.2,13.11 5.57,3.12 11.64,4.68 18.47,4.68 8.22,0 15.45,-2.15 21.72,-6.35 6.35,-4.19 11.24,-9.77 14.66,-16.92 3.42,-7.04 5.09,-14.94 5.09,-23.66 0,-9.19 -1.76,-17.42 -5.48,-24.64 -3.71,-7.24 -8.79,-12.72 -15.07,-16.63 -6.23,-3.72 -13.18,-5.67 -20.92,-5.67 -6.83,0 -13,1.56 -18.56,4.5 -5.67,3.13 -10.18,7.43 -13.41,12.9 v -14.97 h -16.12" style="fill:#26326b;fill-opacity:1;fill-rule:nonzero;stroke:none" id="path60" transform="matrix(0.133333, 0, 0, -0.133333, -315.101959, 661.831543)"/>
  <path d="m 6119.92,3455.98 c -7.04,0 -12.81,-2.15 -17.42,-6.44 -4.57,-4.52 -7.4,-10.58 -8.57,-18.39 h 48.97 c -0.49,8.01 -2.65,14.06 -6.75,18.39 -4.02,4.29 -9.38,6.44 -16.23,6.44 z m 38.04,-70.33 c -3.6,-3.21 -8.5,-5.55 -14.38,-7.31 -5.87,-1.76 -12.32,-2.55 -19.44,-2.55 -14.58,0 -25.94,4.19 -34.35,12.63 -8.4,8.48 -12.61,19.94 -12.61,34.51 0,9.19 1.88,17.3 5.77,24.43 3.92,7.24 8.99,12.74 15.64,16.44 6.48,3.91 13.91,5.86 22.01,5.86 11.84,0 21.22,-3.92 28.06,-11.74 6.87,-7.82 10.38,-18.38 10.38,-31.46 v -8.62 h -65.33 c 0.8,-8.89 3.91,-15.85 9.21,-20.73 5.47,-4.89 12.6,-7.41 21.49,-7.41 5.39,0 10.58,0.76 15.65,2.14 5.09,1.35 9.3,3.41 12.52,5.86 l 5.38,-12.05" style="fill:#26326b;fill-opacity:1;fill-rule:nonzero;stroke:none" id="path62" transform="matrix(0.133333, 0, 0, -0.133333, -315.101959, 661.831543)"/>
  <path d="m 6180.24,3378.22 v 127.42 h 16.54 v -127.42 h -16.54" style="fill:#26326b;fill-opacity:1;fill-rule:nonzero;stroke:none" id="path64" transform="matrix(0.133333, 0, 0, -0.133333, -315.101959, 661.831543)"/>
  <path d="m 6283.03,3487.27 c -2.06,-1.95 -4.71,-2.93 -7.82,-2.93 -3.24,0 -5.88,0.98 -8.03,2.93 -2.15,1.96 -3.12,4.5 -3.12,7.43 0,3.12 0.97,5.67 3.02,7.82 2.07,2.06 4.8,3.12 8.13,3.12 3.11,0 5.76,-1.06 7.82,-3.12 2.15,-1.95 3.12,-4.59 3.12,-7.82 0,-2.93 -0.97,-5.47 -3.12,-7.43 z m -49.29,-82.62 c 0,-4.81 1.56,-8.61 4.89,-11.46 3.33,-2.62 7.92,-4 13.88,-4 6.87,0 12.52,2.04 16.82,6.06 4.52,4.01 6.74,9.09 6.74,15.37 v 9.37 h -17.48 c -8.62,0 -14.88,-1.28 -18.89,-3.71 -4.01,-2.56 -5.96,-6.47 -5.96,-11.63 z m 13.41,82.62 c -2.06,-1.95 -4.69,-2.93 -7.93,-2.93 -3.13,0 -5.86,0.98 -7.82,2.93 -2.15,1.96 -3.13,4.5 -3.13,7.43 0,3.23 0.98,5.87 3.13,7.82 1.96,2.06 4.69,3.12 7.82,3.12 3.24,0 5.87,-1.06 7.93,-3.12 2.04,-1.95 3.03,-4.59 3.03,-7.82 0,-2.93 -0.99,-5.47 -3.03,-7.43 z m 43.11,-109.05 c -4.11,0 -7.03,0.89 -8.99,2.55 -1.95,1.67 -3.03,4.41 -3.32,8.31 -2.65,-4.29 -6.55,-7.62 -11.64,-9.86 -5.09,-2.26 -10.86,-3.43 -17.51,-3.43 -9.49,0 -17.01,2.35 -22.57,7.24 -5.59,4.89 -8.44,11.64 -8.44,19.96 0,9.48 3.44,16.89 10.48,22.19 6.94,5.37 16.62,7.92 28.94,7.92 h 18.86 c -0.38,15.25 -8.31,22.88 -23.56,22.88 -9.18,0 -17.49,-2.36 -24.82,-7.24 l -5.29,11.36 c 3.71,2.93 8.41,5.27 14.08,6.92 5.67,1.66 11.55,2.64 17.59,2.64 12.03,0 21.53,-3.33 28.18,-9.87 6.73,-6.55 10.05,-15.75 10.05,-27.39 v -40.18 h 11.95 v -14 h -13.99" style="fill:#26326b;fill-opacity:1;fill-rule:nonzero;stroke:none" id="path66" transform="matrix(0.133333, 0, 0, -0.133333, -315.101959, 661.831543)"/>
  <path d="m 6362.63,3392.61 c 8.31,0 15.15,2.94 20.73,8.82 5.48,5.75 8.21,13.09 8.21,21.98 0,6.17 -1.38,11.65 -3.91,16.53 -2.56,4.89 -6.07,8.7 -10.47,11.34 -4.41,2.73 -9.29,4.01 -14.56,4.01 -5.37,0 -10.28,-1.46 -14.67,-4.4 -4.3,-2.83 -7.63,-6.74 -9.97,-11.54 -2.36,-4.89 -3.53,-10.16 -3.53,-15.94 0,-9 2.74,-16.33 8.02,-22.18 5.27,-5.68 12.12,-8.62 20.15,-8.62 z m 28.73,3.32 c -3.32,-5.86 -7.72,-10.28 -13.29,-13.29 -5.47,-3.14 -11.73,-4.7 -18.78,-4.7 -8.2,0 -15.44,1.96 -21.69,6.07 -6.46,4.11 -11.34,9.59 -14.88,16.42 -3.52,6.86 -5.26,14.48 -5.26,22.98 0,8.9 1.93,16.92 5.67,24.06 3.72,7.13 8.7,12.63 15.03,16.33 6.27,3.91 13.3,5.86 20.94,5.86 6.85,0 13.11,-1.56 18.68,-4.68 5.68,-3.14 10.17,-7.62 13.58,-13.21 v 15.53 h 15.94 v -81.54 c 0,-14.46 -4.18,-25.8 -12.59,-33.82 -8.52,-8.03 -20.55,-11.94 -36,-11.94 -6.45,0 -12.62,0.8 -18.38,2.56 -5.87,1.77 -10.55,3.99 -14.18,6.82 l 4.99,12.92 c 3.42,-2.53 7.62,-4.4 12.32,-5.77 4.89,-1.37 9.97,-2.07 15.16,-2.07 10.45,0 18.57,2.76 24.24,8.04 5.67,5.47 8.5,13.1 8.5,23.15 v 10.28" style="fill:#26326b;fill-opacity:1;fill-rule:nonzero;stroke:none" id="path68" transform="matrix(0.133333, 0, 0, -0.133333, -315.101959, 661.831543)"/>
  <path d="m 6471.55,3455.98 c -6.84,0 -12.7,-2.15 -17.31,-6.44 -4.59,-4.52 -7.51,-10.58 -8.68,-18.39 h 49.07 c -0.38,8.01 -2.74,14.06 -6.65,18.39 -4.11,4.29 -9.58,6.44 -16.43,6.44 z m 38.15,-70.33 c -3.74,-3.21 -8.43,-5.55 -14.27,-7.31 -5.99,-1.76 -12.53,-2.55 -19.58,-2.55 -14.46,0 -26,4.19 -34.32,12.63 -8.41,8.48 -12.61,19.94 -12.61,34.51 0,9.19 1.96,17.3 5.66,24.43 3.92,7.24 9.21,12.74 15.65,16.44 6.56,3.91 13.98,5.86 22.1,5.86 11.74,0 21.13,-3.92 28.07,-11.74 6.94,-7.82 10.26,-18.38 10.26,-31.46 v -8.62 h -65.31 c 0.88,-8.89 3.92,-15.85 9.39,-20.73 5.28,-4.89 12.52,-7.41 21.51,-7.41 5.27,0 10.46,0.76 15.64,2.14 4.99,1.35 9.18,3.41 12.53,5.86 l 5.28,-12.05" style="fill:#26326b;fill-opacity:1;fill-rule:nonzero;stroke:none" id="path70" transform="matrix(0.133333, 0, 0, -0.133333, -315.101959, 661.831543)"/>
  <path d="m 6620,3351.84 v 153.8 h 16.11 v -153.8 H 6620" style="fill:#26326b;fill-opacity:1;fill-rule:nonzero;stroke:none" id="path72" transform="matrix(0.133333, 0, 0, -0.133333, -315.101959, 661.831543)"/>
  <path d="m 6807.16,3407.08 -36.58,59.83 v -88.69 h -16.52 v 118.64 h 17.1 l 43.14,-71.2 42.82,71.2 h 17.3 v -118.64 h -16.8 v 88.52 l -36.19,-59.66 h -14.27" style="fill:#26326b;fill-opacity:1;fill-rule:nonzero;stroke:none" id="path74" transform="matrix(0.133333, 0, 0, -0.133333, -315.101959, 661.831543)"/>
  <path d="m 6914.52,3404.65 c 0,-4.81 1.66,-8.61 4.98,-11.46 3.32,-2.62 7.93,-4 13.79,-4 6.85,0 12.51,2.04 17.01,6.06 4.41,4.01 6.65,9.09 6.65,15.37 v 9.37 h -17.6 c -8.49,0 -14.76,-1.28 -18.76,-3.71 -4.11,-2.56 -6.07,-6.47 -6.07,-11.63 z m 56.52,-26.43 c -4.02,0 -7.06,0.89 -9,2.55 -1.85,1.67 -2.94,4.41 -3.22,8.31 -2.66,-4.29 -6.54,-7.62 -11.64,-9.86 -5.09,-2.26 -10.96,-3.43 -17.6,-3.43 -9.38,0 -17.02,2.35 -22.49,7.24 -5.68,4.89 -8.42,11.64 -8.42,19.96 0,9.48 3.43,16.89 10.35,22.19 7.06,5.37 16.64,7.92 29.07,7.92 h 18.86 c -0.38,15.25 -8.31,22.88 -23.66,22.88 -9.19,0 -17.41,-2.36 -24.75,-7.24 l -5.38,11.36 c 3.74,2.93 8.42,5.27 14.1,6.92 5.78,1.66 11.63,2.64 17.6,2.64 12.12,0 21.5,-3.33 28.15,-9.87 6.85,-6.55 10.18,-15.75 10.18,-27.39 v -40.18 h 11.93 v -14 h -14.08" style="fill:#26326b;fill-opacity:1;fill-rule:nonzero;stroke:none" id="path76" transform="matrix(0.133333, 0, 0, -0.133333, -315.101959, 661.831543)"/>
  <path d="m 7003.5,3378.22 v 127.42 h 16.41 v -127.42 h -16.41" style="fill:#26326b;fill-opacity:1;fill-rule:nonzero;stroke:none" id="path78" transform="matrix(0.133333, 0, 0, -0.133333, -315.101959, 661.831543)"/>
  <path d="m 7084.28,3455.98 c -7.06,0 -12.82,-2.15 -17.41,-6.44 -4.59,-4.52 -7.44,-10.58 -8.62,-18.39 h 48.99 c -0.48,8.01 -2.74,14.06 -6.74,18.39 -4.01,4.29 -9.38,6.44 -16.22,6.44 z m 38.03,-70.33 c -3.63,-3.21 -8.51,-5.55 -14.38,-7.31 -5.86,-1.76 -12.32,-2.55 -19.46,-2.55 -14.57,0 -25.92,4.19 -34.32,12.63 -8.4,8.48 -12.62,19.94 -12.62,34.51 0,9.19 1.87,17.3 5.78,24.43 3.81,7.24 9,12.74 15.64,16.44 6.44,3.91 13.9,5.86 22,5.86 11.85,0 21.13,-3.92 28.07,-11.74 6.84,-7.82 10.36,-18.38 10.36,-31.46 v -8.62 h -65.32 c 0.78,-8.89 3.92,-15.85 9.19,-20.73 5.47,-4.89 12.53,-7.41 21.53,-7.41 5.36,0 10.56,0.76 15.63,2.14 5.09,1.35 9.3,3.41 12.52,5.86 l 5.38,-12.05" style="fill:#26326b;fill-opacity:1;fill-rule:nonzero;stroke:none" id="path80" transform="matrix(0.133333, 0, 0, -0.133333, -315.101959, 661.831543)"/>
  <path d="m 7188.53,3468.3 c 2.23,0 4.77,-0.3 7.61,-1 v -15.05 c -1.95,0.5 -4.7,0.79 -8.62,0.79 -8.2,0 -14.67,-2.54 -19.35,-7.72 -4.8,-4.99 -7.13,-12.03 -7.13,-20.83 v -46.27 h -16.44 v 89.08 h 15.35 v -16.61 c 2.75,5.67 6.56,9.97 11.54,13.11 4.99,3.03 10.56,4.5 17.04,4.5" style="fill:#26326b;fill-opacity:1;fill-rule:nonzero;stroke:none" id="path82" transform="matrix(0.133333, 0, 0, -0.133333, -315.101959, 661.831543)"/>
  <path d="m 7224.49,3404.65 c 0,-4.81 1.57,-8.61 4.89,-11.46 3.33,-2.62 7.92,-4 13.9,-4 6.85,0 12.5,2.04 16.82,6.06 4.49,4.01 6.64,9.09 6.64,15.37 v 9.37 h -17.4 c -8.62,0 -14.88,-1.28 -18.87,-3.71 -4.01,-2.56 -5.98,-6.47 -5.98,-11.63 z m 56.52,-26.43 c -4.1,0 -7.04,0.89 -9,2.55 -1.96,1.67 -3.12,4.41 -3.32,8.31 -2.73,-4.29 -6.65,-7.62 -11.64,-9.86 -5.08,-2.26 -10.96,-3.43 -17.51,-3.43 -9.47,0 -17.01,2.35 -22.67,7.24 -5.57,4.89 -8.41,11.64 -8.41,19.96 0,9.48 3.51,16.89 10.55,22.19 6.94,5.37 16.64,7.92 28.94,7.92 h 18.79 c -0.4,15.25 -8.23,22.88 -23.46,22.88 -9.21,0 -17.51,-2.36 -24.85,-7.24 l -5.29,11.36 c 3.64,2.93 8.41,5.27 14.09,6.92 5.67,1.66 11.55,2.64 17.61,2.64 12.01,0 21.42,-3.33 28.16,-9.87 6.73,-6.55 10.06,-15.75 10.06,-27.39 v -40.18 h 11.83 v -14 h -13.88" style="fill:#26326b;fill-opacity:1;fill-rule:nonzero;stroke:none" id="path84" transform="matrix(0.133333, 0, 0, -0.133333, -315.101959, 661.831543)"/>
  <path d="m 7357.27,3468.3 c 2.26,0 4.8,-0.3 7.65,-1 v -15.05 c -1.96,0.5 -4.7,0.79 -8.52,0.79 -8.31,0 -14.76,-2.54 -19.46,-7.72 -4.68,-4.99 -7.04,-12.03 -7.04,-20.83 v -46.27 h -16.51 v 89.08 h 15.34 v -16.61 c 2.73,5.67 6.65,9.97 11.53,13.11 5,3.03 10.68,4.5 17.01,4.5" style="fill:#26326b;fill-opacity:1;fill-rule:nonzero;stroke:none" id="path86" transform="matrix(0.133333, 0, 0, -0.133333, -315.101959, 661.831543)"/>
  <path d="m 7427.78,3390.46 c 5.38,0 10.28,1.38 14.57,4.3 4.31,2.94 7.63,6.84 9.97,11.64 2.25,4.8 3.43,10.27 3.43,16.33 0,6.35 -1.28,11.93 -3.81,16.81 -2.55,4.9 -5.86,8.81 -10.08,11.35 -4.2,2.73 -8.91,4.12 -14.08,4.12 -5.67,0 -10.66,-1.56 -15.15,-4.41 -4.4,-2.84 -7.83,-6.74 -10.27,-11.64 -2.44,-4.89 -3.62,-10.17 -3.62,-16.23 0,-6.45 1.28,-12.11 3.92,-17.03 2.52,-4.88 6.05,-8.59 10.55,-11.23 4.41,-2.63 9.18,-4.01 14.57,-4.01 z M 7383,3378.22 v 127.42 h 16.43 v -53.77 c 3.23,5.57 7.52,9.97 13.2,13.11 5.47,3.12 11.63,4.68 18.47,4.68 8.22,0 15.35,-2.15 21.71,-6.35 6.36,-4.19 11.25,-9.77 14.68,-16.92 3.42,-7.04 5.08,-14.94 5.08,-23.66 0,-9.19 -1.87,-17.42 -5.58,-24.64 -3.71,-7.24 -8.69,-12.72 -14.95,-16.63 -6.26,-3.72 -13.2,-5.67 -20.94,-5.67 -6.84,0 -13,1.56 -18.68,4.5 -5.56,3.13 -10.06,7.43 -13.29,12.9 v -14.97 H 7383" style="fill:#26326b;fill-opacity:1;fill-rule:nonzero;stroke:none" id="path88" transform="matrix(0.133333, 0, 0, -0.133333, -315.101959, 661.831543)"/>
  <path d="m 7531.92,3455.98 c -7.05,0 -12.72,-2.15 -17.4,-6.44 -4.61,-4.52 -7.44,-10.58 -8.61,-18.39 h 48.99 c -0.48,8.01 -2.63,14.06 -6.74,18.39 -3.91,4.29 -9.38,6.44 -16.24,6.44 z m 38.05,-70.33 c -3.63,-3.21 -8.52,-5.55 -14.38,-7.31 -5.86,-1.76 -12.32,-2.55 -19.46,-2.55 -14.46,0 -25.93,4.19 -34.31,12.63 -8.41,8.48 -12.52,19.94 -12.52,34.51 0,9.19 1.85,17.3 5.67,24.43 3.91,7.24 8.99,12.74 15.63,16.44 6.47,3.91 13.88,5.86 22.02,5.86 11.83,0 21.22,-3.92 28.04,-11.74 6.87,-7.82 10.37,-18.38 10.37,-31.46 v -8.62 h -65.31 c 0.77,-8.89 3.91,-15.85 9.29,-20.73 5.38,-4.89 12.52,-7.41 21.42,-7.41 5.37,0 10.55,0.76 15.64,2.14 5.09,1.35 9.31,3.41 12.52,5.86 l 5.38,-12.05" style="fill:#26326b;fill-opacity:1;fill-rule:nonzero;stroke:none" id="path90" transform="matrix(0.133333, 0, 0, -0.133333, -315.101959, 661.831543)"/>
  <path d="m 7612.39,3486.3 c -2.04,-1.96 -4.79,-3.05 -8.01,-3.05 -3.33,0 -6.06,1.09 -8.12,3.05 -2.04,2.15 -3.14,4.69 -3.14,7.92 0,3.2 1.1,5.75 3.14,7.9 2.06,2.07 4.79,3.13 8.12,3.13 3.22,0 5.97,-1.06 8.01,-3.13 2.06,-2.15 3.04,-4.7 3.04,-7.9 0,-3.23 -0.98,-5.77 -3.04,-7.92 z m -13.87,-108.08 v 75.11 h -14.38 v 13.97 h 19.18 c 3.99,0 6.92,-0.97 8.8,-2.73 1.94,-1.85 2.93,-4.69 2.93,-8.8 v -77.55 h -16.53" style="fill:#26326b;fill-opacity:1;fill-rule:nonzero;stroke:none" id="path92" transform="matrix(0.133333, 0, 0, -0.133333, -315.101959, 661.831543)"/>
  <path d="m 7676.45,3375.79 c -9.38,0 -16.42,2.74 -21.11,8.11 -4.91,5.39 -7.25,13.4 -7.25,23.77 v 45.66 h -15.25 v 13.97 h 9.57 c 2.55,0 4.42,0.51 5.5,1.59 1.06,0.97 1.54,2.74 1.54,5.18 v 15.34 h 15.07 v -22.11 h 27.96 v -13.97 h -27.96 v -44.28 c 0,-6.47 1.27,-11.25 3.71,-14.29 2.55,-3.13 6.36,-4.69 11.54,-4.69 2.36,0 4.89,0.29 7.44,0.89 2.54,0.58 4.68,1.36 6.55,2.23 l 3.05,-12.52 c -2.18,-1.56 -5,-2.73 -8.63,-3.6 -3.52,-0.88 -7.43,-1.28 -11.73,-1.28" style="fill:#26326b;fill-opacity:1;fill-rule:nonzero;stroke:none" id="path94" transform="matrix(0.133333, 0, 0, -0.133333, -315.101959, 661.831543)"/>
  <path d="m 7751.15,3455.98 c -6.95,0 -12.7,-2.15 -17.31,-6.44 -4.59,-4.52 -7.54,-10.58 -8.68,-18.39 h 49.08 c -0.59,8.01 -2.74,14.06 -6.86,18.39 -3.91,4.29 -9.38,6.44 -16.23,6.44 z m 38.15,-70.33 c -3.64,-3.21 -8.52,-5.55 -14.38,-7.31 -5.98,-1.76 -12.43,-2.55 -19.46,-2.55 -14.48,0 -26.01,4.19 -34.42,12.63 -8.4,8.48 -12.51,19.94 -12.51,34.51 0,9.19 1.94,17.3 5.68,24.43 3.9,7.24 9.07,12.74 15.62,16.44 6.55,3.91 13.89,5.86 22.1,5.86 11.74,0 21.22,-3.92 28.07,-11.74 6.84,-7.82 10.36,-18.38 10.36,-31.46 v -8.62 h -65.41 c 0.79,-8.89 3.92,-15.85 9.39,-20.73 5.28,-4.89 12.51,-7.41 21.41,-7.41 5.39,0 10.48,0.76 15.65,2.14 5.08,1.35 9.29,3.41 12.52,5.86 l 5.38,-12.05" style="fill:#26326b;fill-opacity:1;fill-rule:nonzero;stroke:none" id="path96" transform="matrix(0.133333, 0, 0, -0.133333, -315.101959, 661.831543)"/>
  <path d="m 7856.18,3469.66 c 10.74,0 19.06,-3.33 25.04,-10.06 5.87,-6.64 8.78,-16.04 8.78,-28.07 v -53.31 h -16.51 v 52.33 c 0,7.82 -1.76,13.89 -5.39,18.09 -3.61,4.2 -8.79,6.37 -15.64,6.37 -7.53,0 -13.5,-2.56 -17.9,-7.36 -4.3,-4.78 -6.54,-11.61 -6.54,-20.23 v -49.2 h -16.54 v 89.08 h 15.57 v -13.68 c 2.82,5.3 6.72,9.21 11.73,11.93 4.98,2.75 10.75,4.11 17.4,4.11" style="fill:#26326b;fill-opacity:1;fill-rule:nonzero;stroke:none" id="path98" transform="matrix(0.133333, 0, 0, -0.133333, -315.101959, 661.831543)"/>
  <path d="m 3929.99,3939.45 c -26.72,26.35 -57.33,47.33 -91.77,62.86 -34.36,15.53 -73.15,23.34 -116.05,23.34 -29.88,0 -56.88,-3.91 -81.19,-11.88 -24.36,-7.8 -45.18,-18.86 -62.5,-33.17 -17.32,-14.23 -30.86,-31.07 -40.45,-50.58 -9.68,-19.52 -14.51,-40.66 -14.51,-63.44 0,-23.73 4.91,-45.37 14.87,-64.81 9.85,-19.51 23.71,-36.34 41.77,-50.65 17.92,-14.31 39.72,-25.38 65.37,-33.19 25.66,-7.96 54.24,-11.87 85.79,-11.87 40.34,0 76.72,7.25 109.17,21.65 32.45,14.54 62.78,36.9 90.79,67.15 l 98.04,-52.61 c -19.81,-22.35 -40.3,-41.63 -61.57,-57.81 -21.27,-16.28 -43.82,-29.69 -67.74,-40.17 -23.9,-10.59 -49.31,-18.23 -76.23,-23.1 -26.95,-4.71 -56.07,-7.16 -87.17,-7.16 -42.58,0 -81.85,4.88 -118.07,14.8 -36.11,9.84 -71.37,25.28 -105.56,46.37 -32.16,19.66 -57.74,46.5 -76.73,80.25 -18.98,33.73 -28.41,70.83 -28.41,111.15 0,34.16 6.87,65.88 20.77,95.31 13.95,29.36 34.52,55.22 61.85,77.58 30.41,24.97 66.2,44.24 107.42,57.91 41.14,13.57 85.71,20.32 133.44,20.32 64.53,0 121.58,-11.46 171.3,-34.47 49.76,-23.02 93.96,-58.47 132.55,-106.2 l -105.18,-37.58" style="fill:#26326b;fill-opacity:1;fill-rule:nonzero;stroke:none" id="path100" transform="matrix(0.133333, 0, 0, -0.133333, -315.101959, 661.831543)"/>
  <path d="m 4542.8,3830.4 c 0,17.9 -3.86,34.48 -11.51,49.6 -7.64,15.13 -18.75,28.07 -33.21,38.8 -14.44,10.73 -31.76,19.19 -51.97,25.37 -20.12,6.09 -42.73,9.18 -67.65,9.18 -25.5,0 -48.39,-3.09 -68.76,-9.18 -20.41,-6.18 -37.81,-14.64 -52.29,-25.37 -14.43,-10.73 -25.5,-23.67 -33.25,-38.8 -7.66,-15.12 -11.51,-31.7 -11.51,-49.6 0,-18.46 3.85,-35.2 11.51,-50.34 7.75,-15.12 18.66,-28.13 32.89,-39.11 14.22,-10.97 31.63,-19.44 52.04,-25.29 20.29,-6.02 43.42,-8.95 69.37,-8.95 25.37,0 48.14,2.93 68.34,8.95 20.13,5.85 37.37,14.32 51.6,25.29 14.23,10.98 25.25,23.99 32.89,39.11 7.65,15.14 11.51,31.88 11.51,50.34 z m 119.01,0 c 0,-60.99 -24.27,-110.5 -72.94,-148.64 -26.31,-20.58 -57.49,-36.77 -93.36,-48.4 -36.02,-11.54 -74.97,-17.4 -117.05,-17.4 -42.57,0 -81.77,5.86 -117.72,17.4 -35.94,11.63 -67.08,27.82 -93.43,48.4 -48.63,38.14 -72.98,87.65 -72.98,148.64 0,60.02 24.51,109.38 73.67,147.92 26.27,21.07 57.41,37.25 93.36,48.63 35.93,11.38 74.97,17.16 117.1,17.16 41.63,0 80.38,-5.78 116.36,-17.16 35.94,-11.38 67.05,-27.56 93.35,-48.63 49.12,-38.54 73.64,-87.9 73.64,-147.92" style="fill:#26326b;fill-opacity:1;fill-rule:nonzero;stroke:none" id="path102" transform="matrix(0.133333, 0, 0, -0.133333, -315.101959, 661.831543)"/>
  <path d="m 5171.54,3909.94 c -63.13,28.05 -126.03,42.03 -188.73,42.03 -39.88,0 -69.97,-3.58 -90.1,-10.81 -20.12,-7.24 -30.25,-16.51 -30.25,-27.89 0,-8.38 3.54,-14.64 10.57,-18.79 6.96,-4.14 17.33,-7.4 30.87,-9.51 13.61,-2.27 30.48,-3.91 50.62,-5.29 20.2,-1.3 43.42,-3.09 69.69,-5.29 74.12,-6.17 129.13,-18.29 165.08,-36.42 36.02,-18.22 53.99,-45.55 53.99,-81.91 0,-43.4 -20.66,-77.8 -61.88,-103.18 -41.23,-25.54 -101.29,-38.22 -180.2,-38.22 -52.99,0 -102.59,6.51 -148.57,19.36 -46.03,13.01 -90.96,33.99 -134.83,62.85 l 59.85,72.29 c 31.99,-20.97 66.19,-36.25 102.58,-45.68 36.39,-9.45 76.48,-14.16 120.35,-14.16 39.93,0 69.77,3.57 89.73,10.58 19.97,6.97 29.97,16.24 29.97,27.64 0,6.5 -4.11,11.86 -12.19,16.09 -8.09,4.07 -19.97,7.48 -35.54,10.18 -15.53,2.68 -34.68,4.96 -57.45,6.91 -22.85,1.96 -49.16,4.07 -78.96,6.17 -128.48,10.09 -192.68,51.16 -192.68,123.05 0,20.16 5.12,38.62 15.49,55.21 10.28,16.67 25.12,30.89 44.64,42.77 19.52,11.87 43.5,20.98 72.01,27.32 28.54,6.35 60.98,9.43 97.38,9.43 53.02,0 100.14,-4.71 141.33,-14.38 41.22,-9.68 78.51,-25.62 111.81,-48.06 l -54.58,-72.29" style="fill:#26326b;fill-opacity:1;fill-rule:nonzero;stroke:none" id="path104" transform="matrix(0.133333, 0, 0, -0.133333, -315.101959, 661.831543)"/>
  <path d="m 5570.74,3940.83 v -313.65 h -115.79 v 313.65 h -192.72 v 90.76 h 500.43 v -90.76 h -191.92" style="fill:#26326b;fill-opacity:1;fill-rule:nonzero;stroke:none" id="path106" transform="matrix(0.133333, 0, 0, -0.133333, -315.101959, 661.831543)"/>
  <path d="m 5844.95,3627.18 v 404.41 h 115.81 v -404.41 h -115.81" style="fill:#26326b;fill-opacity:1;fill-rule:nonzero;stroke:none" id="path108" transform="matrix(0.133333, 0, 0, -0.133333, -315.101959, 661.831543)"/>
  <path d="m 6464.43,3627.18 -254.53,266.98 h -1.93 v -266.98 h -115.81 v 404.41 h 134.18 l 255.83,-266.98 h 1.3 v 266.98 h 115.71 v -404.41 h -134.75" style="fill:#26326b;fill-opacity:1;fill-rule:nonzero;stroke:none" id="path110" transform="matrix(0.133333, 0, 0, -0.133333, -315.101959, 661.831543)"/>
  <path d="M 7135.14,3627.18 V 3783 h -288.67 v -155.82 h -115.79 v 403.76 h 115.79 v -157.19 h 288.67 v 157.19 h 115.73 v -403.76 h -115.73" style="fill:#26326b;fill-opacity:1;fill-rule:nonzero;stroke:none" id="path112" transform="matrix(0.133333, 0, 0, -0.133333, -315.101959, 661.831543)"/>
  <path d="m 7601.26,3934.9 -72.85,-133.53 h 145.95 z m 171.1,-307.72 -46.75,83.44 h -248.6 l -46.68,-83.44 h -119.05 l 224.29,404.41 h 131.48 l 224.36,-404.41 h -119.05" style="fill:#26326b;fill-opacity:1;fill-rule:nonzero;stroke:none" id="path114" transform="matrix(0.133333, 0, 0, -0.133333, -315.101959, 661.831543)"/>
  <path d="m 7751.3,4074.93 h -24.15 v 13.82 h 29.19 c 3.83,0 6.5,-0.81 7.97,-2.28 1.46,-1.46 2.27,-4.07 2.27,-7.72 v -36.51 c -4.72,-3.49 -10.24,-6.18 -16.66,-7.97 -6.34,-1.79 -13.34,-2.68 -20.99,-2.68 -11.45,0 -21.45,2.36 -29.93,7.07 -8.52,4.71 -15.11,11.22 -19.6,19.52 -4.46,8.29 -6.73,17.89 -6.73,28.62 0,11.38 2.36,21.22 6.99,29.6 4.71,8.45 11.07,14.88 19.34,19.35 8.15,4.48 17.5,6.67 27.98,6.67 7.57,0 14.56,-1.22 21.15,-3.66 6.51,-2.44 11.87,-5.77 16.03,-10.16 l -8.55,-10.82 c -3.59,3.17 -7.8,5.69 -12.84,7.48 -5.21,1.8 -10.25,2.69 -15.46,2.69 -7.8,0 -14.63,-1.7 -20.48,-5.13 -5.87,-3.48 -10.25,-8.2 -13.35,-14.39 -3.09,-6.18 -4.55,-13.17 -4.55,-21.31 0,-12.68 3.59,-22.76 10.9,-30.09 7.15,-7.47 17.07,-11.14 29.52,-11.14 8.94,0 16.26,1.4 21.95,4.32 v 24.72" style="fill:#c2993d;fill-opacity:1;fill-rule:nonzero;stroke:none" id="path116" transform="matrix(0.133333, 0, 0, -0.133333, -315.101959, 661.831543)"/>
  <path d="m 7827.99,4115.75 c 6.02,0 11.13,-1.55 15.36,-4.64 4.23,-3 7.39,-7.48 9.6,-13.33 2.36,5.61 6.17,10 11.3,13.17 5.2,3.18 11.06,4.8 17.72,4.8 9.29,0 16.6,-3.01 21.72,-8.94 5.2,-6.03 7.81,-14.4 7.81,-25.21 v -47.82 h -14.71 v 46.84 c 0,7.16 -1.56,12.52 -4.64,16.27 -3.1,3.74 -7.56,5.69 -13.5,5.69 -6.59,0 -11.71,-2.12 -15.62,-6.27 -3.74,-4.23 -5.7,-9.92 -5.7,-17.07 v -45.46 h -14.79 v 46.84 c 0,7.24 -1.46,12.69 -4.55,16.43 -3.09,3.65 -7.48,5.53 -13.35,5.53 -6.49,0 -11.69,-2.12 -15.44,-6.27 -3.82,-4.23 -5.69,-10 -5.69,-17.56 v -44.97 h -14.8 v 79.85 h 13.91 v -12.85 c 2.52,4.88 5.92,8.63 10.4,11.15 4.39,2.52 9.36,3.82 14.97,3.82" style="fill:#c2993d;fill-opacity:1;fill-rule:nonzero;stroke:none" id="path118" transform="matrix(0.133333, 0, 0, -0.133333, -315.101959, 661.831543)"/>
  <path d="m 7975.17,4044.77 c 4.89,0 9.18,1.29 13.09,3.89 3.83,2.53 6.84,6.11 8.87,10.41 2.12,4.31 3.08,9.19 3.08,14.56 0,5.77 -1.13,10.81 -3.4,15.2 -2.28,4.39 -5.3,7.73 -9.04,10.16 -3.74,2.37 -7.96,3.59 -12.6,3.59 -5.12,0 -9.59,-1.3 -13.57,-3.9 -3.99,-2.61 -7.08,-6.02 -9.2,-10.42 -2.2,-4.39 -3.34,-9.18 -3.34,-14.63 0,-5.7 1.23,-10.73 3.6,-15.13 2.26,-4.39 5.44,-7.81 9.41,-10.17 3.99,-2.35 8.31,-3.56 13.1,-3.56 z m -40.18,-10.99 v 114.17 h 14.81 v -48.14 c 2.86,5.04 6.76,8.94 11.7,11.71 4.97,2.77 10.58,4.23 16.68,4.23 7.32,0 13.82,-1.87 19.44,-5.7 5.69,-3.73 10.07,-8.77 13.09,-15.12 3.08,-6.34 4.63,-13.42 4.63,-21.3 0,-8.21 -1.7,-15.61 -5.04,-22.04 -3.33,-6.42 -7.8,-11.38 -13.42,-14.88 -5.6,-3.41 -11.87,-5.12 -18.7,-5.12 -6.1,0 -11.71,1.38 -16.75,4.14 -5.03,2.77 -9.03,6.59 -11.96,11.56 v -13.51 h -14.48" style="fill:#c2993d;fill-opacity:1;fill-rule:nonzero;stroke:none" id="path120" transform="matrix(0.133333, 0, 0, -0.133333, -315.101959, 661.831543)"/>
  <path d="m 8037.38,4033.78 v 106.45 h 15.61 v -44.48 h 57.09 v 44.48 h 15.61 v -106.45 h -15.61 v 47.33 h -57.09 v -47.33 h -15.61" style="fill:#c2993d;fill-opacity:1;fill-rule:nonzero;stroke:none" id="path122" transform="matrix(0.133333, 0, 0, -0.133333, -315.101959, 661.831543)"/>
  <path d="M 3125.78,4361.66 2877.93,4113.72 H 2382.16 V 3618 h 743.62 l -247.85,-247.87 h -743.62 v 991.53 h 991.47" style="fill:#26326b;fill-opacity:1;fill-rule:nonzero;stroke:none" id="path124" transform="matrix(0.133333, 0, 0, -0.133333, -315.101959, 661.831543)"/>
  <path d="m 2506.1,3989.87 v -247.95 h 371.83 l 247.85,247.95 H 2506.1" style="fill:#c2993d;fill-opacity:1;fill-rule:nonzero;stroke:none" id="path126" transform="matrix(0.133333, 0, 0, -0.133333, -315.101959, 661.831543)"/>
</svg>